<?xml version="1.0" encoding="utf-8"?>
<!-- Generator: Adobe Illustrator 24.0.1, SVG Export Plug-In . SVG Version: 6.00 Build 0)  -->
<svg version="1.1" id="Layer_1" xmlns="http://www.w3.org/2000/svg" xmlns:xlink="http://www.w3.org/1999/xlink" x="0px" y="0px"
	 viewBox="0 0 35 24" style="enable-background:new 0 0 35 24;" xml:space="preserve">
<style type="text/css">
	.st0{fill:url(#SVGID_1_);}
	.st1{fill:url(#SVGID_2_);}
	.st2{fill:url(#SVGID_3_);}
</style>
<linearGradient id="SVGID_1_" gradientUnits="userSpaceOnUse" x1="-5.4877" y1="4.4843" x2="44.2473" y2="17.4408" gradientTransform="matrix(1 0 0 -1 0 24.9998)">
	<stop  offset="0" style="stop-color:#1DA1F2"/>
	<stop  offset="1" style="stop-color:#D41DF2"/>
</linearGradient>
<path class="st0" d="M35,8.4c-0.3,0.5-0.6,1-0.9,1.5c-1.3,2.2-2.5,4.3-3.8,6.5c-1.4,2.4-2.8,4.8-4.2,7.2c-0.1,0.1-0.1,0.1-0.2,0.2
	C25.7,24,25.4,24,25.2,24c-4,0-8.1,0-12.1,0c-0.1,0-0.1,0-0.2,0c0-0.1,0-0.1,0-0.2c-0.1,0-0.2,0-0.3,0c-0.1,0-0.2,0-0.2-0.1
	c-1.1-1.3-2.2-2.7-3.2-4c-1.1-1.4-2.2-2.7-3.3-4.1c-1-1.2-2-2.5-3-3.7c-0.9-1.1-1.8-2.2-2.6-3.3C0,8.5,0,8.5,0,8.3
	c0.1-0.3,0.2-0.5,0.3-0.8c0-0.1,0.1-0.1,0.2-0.1C1.7,7.3,3,7.1,4.2,6.9C4.8,6.8,5.4,6.8,6,6.7c0.1,0,0.1,0,0.2,0.1
	C6.4,7,6.5,7.3,6.7,7.5c0.1,0.1,0.1,0.2,0,0.3c-0.3,0.5-0.6,1-0.9,1.6c-0.1,0.1-0.1,0.2,0,0.3C6.9,11,7.9,12.5,9,14
	c1.1,1.5,2.2,3.1,3.3,4.6c0.5,0.6,0.9,1.3,1.4,1.9c0,0,0.1,0.1,0.1,0.1c0.2-0.3,0.4-0.6,0.6-0.9c1.1-1.8,2.2-3.6,3.4-5.3
	c1.2-1.9,2.4-3.9,3.6-5.8c0.1-0.2,0.3-0.5,0.5-0.7c0.2-0.3,0.5-0.4,0.8-0.4c3.9,0,7.8,0,11.7,0c0.1,0,0.2,0,0.3,0.2
	C34.7,7.9,34.9,8.1,35,8.4C35,8.4,35,8.4,35,8.4z"/>
<linearGradient id="SVGID_2_" gradientUnits="userSpaceOnUse" x1="3.6557" y1="16.9035" x2="19.7601" y2="18.4613" gradientTransform="matrix(1 0 0 -1 0 24.9998)">
	<stop  offset="0" style="stop-color:#1DA1F2"/>
	<stop  offset="1" style="stop-color:#D41DF2"/>
</linearGradient>
<path class="st1" d="M15.9,0c0.1,0.4,0.3,0.8,0.5,1.2c-0.4,0.3-0.7,0.5-1.1,0.8c-1.2,0.8-2.4,1.7-3.6,2.5c-0.2,0.1-0.2,0.3-0.2,0.5
	c0.2,1.3,0.3,2.6,0.5,3.9c0.1,1.2,0.3,2.4,0.4,3.7c0.1,0.4,0.1,0.9,0.2,1.3c0,0.1,0,0.1-0.1,0.2c-0.3,0.1-0.6,0.2-0.9,0.3
	c-0.1,0-0.2,0-0.2-0.1c-0.5-1-0.9-1.9-1.4-2.9c-0.7-1.5-1.4-3-2.1-4.5C7.1,5.3,6.4,3.8,5.7,2.4c-0.1-0.2-0.1-0.3,0-0.4
	C5.8,1.7,5.9,1.5,6,1.4c0-0.1,0.1-0.1,0.1-0.1c1.3-0.2,2.6-0.3,4-0.5c1-0.1,1.9-0.2,2.9-0.4c0.9-0.1,1.8-0.2,2.7-0.4
	C15.8,0,15.8,0,15.9,0C15.9,0,15.9,0,15.9,0z"/>
<linearGradient id="SVGID_3_" gradientUnits="userSpaceOnUse" x1="10.6585" y1="16.7594" x2="34.0429" y2="20.4168" gradientTransform="matrix(1 0 0 -1 0 24.9998)">
	<stop  offset="0" style="stop-color:#1DA1F2"/>
	<stop  offset="1" style="stop-color:#D41DF2"/>
</linearGradient>
<path class="st2" d="M29.4,2.3c0,0.4,0,0.8,0,1.3c-0.4,0.1-0.8,0.1-1.2,0.2C27,3.9,26,4,24.8,4.2c-1.5,0.2-2.9,0.4-4.4,0.6
	c-0.2,0-0.4,0.1-0.6,0.1c-0.1,0-0.2,0.1-0.3,0.2c-0.6,1.1-1.2,2.2-1.8,3.3c-1,1.8-2,3.6-2.9,5.4c-0.1,0.1-0.2,0.2-0.3,0.1
	c-0.3-0.1-0.5-0.2-0.8-0.3c-0.1,0-0.1-0.1-0.1-0.2c0.2-0.9,0.5-1.9,0.7-2.8c0.5-1.9,1-3.8,1.5-5.7c0.3-1.1,0.6-2.3,0.9-3.4
	c0-0.1,0.1-0.2,0.2-0.2c0.3-0.4,0.7-0.4,1.2-0.3c2.3,0.3,4.6,0.6,6.9,0.9C26.5,2,27.9,2.1,29.4,2.3C29.4,2.3,29.4,2.3,29.4,2.3z"/>
</svg>
